<?xml version="1.0" encoding="utf-8"?>
<!-- Generator: Adobe Illustrator 25.0.0, SVG Export Plug-In . SVG Version: 6.00 Build 0)  -->
<svg version="1.1" id="Слой_1" xmlns="http://www.w3.org/2000/svg" xmlns:xlink="http://www.w3.org/1999/xlink" x="0px" y="0px"
	 viewBox="0 0 170 150" style="enable-background:new 0 0 170 150;" xml:space="preserve">
<style type="text/css">
	.st0{fill:#593317;}
	.st1{fill:none;stroke:#593317;stroke-width:5;stroke-linecap:round;stroke-miterlimit:10;}
	.st2{fill:#593317;stroke:#593317;stroke-width:5;stroke-linecap:round;stroke-miterlimit:10;}
</style>
<g>
	<path class="st0" d="M84.3,118.25c-25.46,0-46.17-20.71-46.17-46.16c0-25.46,20.71-46.16,46.17-46.16
		c25.46,0,46.16,20.71,46.16,46.16C130.46,97.54,109.75,118.25,84.3,118.25z"/>
	<path class="st0" d="M84.3,26.42c25.18,0,45.66,20.49,45.66,45.66s-20.49,45.66-45.66,45.66S38.63,97.27,38.63,72.09
		S59.12,26.42,84.3,26.42 M84.3,25.42c-25.77,0-46.66,20.89-46.66,46.66s20.89,46.66,46.66,46.66c25.77,0,46.66-20.89,46.66-46.66
		S110.07,25.42,84.3,25.42L84.3,25.42z"/>
</g>
<g>
	<line class="st1" x1="89.47" y1="91.63" x2="123.14" y2="146.9"/>
	<line class="st0" x1="89.47" y1="91.63" x2="123.14" y2="146.9"/>
</g>
<line class="st2" x1="167.1" y1="2.94" x2="83.67" y2="78"/>
<line class="st2" x1="16.72" y1="12.2" x2="83.67" y2="78"/>
</svg>
