<?xml version="1.0" encoding="utf-8"?>
<!-- Generator: Adobe Illustrator 25.0.0, SVG Export Plug-In . SVG Version: 6.00 Build 0)  -->
<svg version="1.1" xmlns="http://www.w3.org/2000/svg" xmlns:xlink="http://www.w3.org/1999/xlink" x="0px" y="0px"
	 viewBox="0 0 500 500" style="enable-background:new 0 0 500 500;" xml:space="preserve">
<style type="text/css">
	.st0{fill:#FFEA92;}
	.st1{fill:#557A9B;}
	.st2{fill:#FFFFFF;stroke:#1A1A1A;stroke-width:7;stroke-miterlimit:10;}
	.st3{font-family:'MyriadPro-Regular';}
	.st4{font-size:553.5471px;}
	.st5{display:none;}
	.st6{display:inline;fill:#4D4D4D;}
	.st7{fill:#FFFFFF;}
</style>
<g id="Слой_1">
</g>
<g id="Слой_3">
	<path class="st0" d="M0.36,499.68l500-500l-0.58,338.94c-0.15,89.42-72.77,161.79-162.19,161.63L0.36,499.68z"/>
	<path class="st1" d="M0.36,499.68l500-500L189.3,0.21C85.32,0.39,1.07,84.63,0.89,188.61L0.36,499.68z"/>
</g>
<g id="Слой_2">
	<text transform="matrix(1.2904 0 0 1 86.6839 444.1936)" class="st2 st3 st4">S</text>
</g>
<g id="Слой_4" class="st5">
	<path class="st6" d="M368.74,500.53h-235.9c-72.69,0-131.62-58.93-131.62-131.62V131.3C1.21,58.61,60.14-0.32,132.84-0.32h235.9
		c72.69,0,131.62,58.93,131.62,131.62v237.61C500.36,441.6,441.43,500.53,368.74,500.53z"/>
</g>
<g id="Слой_5">
	<path class="st7" d="M640.18,557.37c75.54-7.64,116.39-59.67,124.03-120.8c7.64-61.14,36.74,27.33,36.74,27.33l-19.99,102.87
		l-144.31,3.23L640.18,557.37z"/>
	<path class="st7" d="M400.3-99.72c72.89,4.41,119.04,68.48,122.27,120.51c3.12,50.18,32.04-82,32.04-82l-21.75-68.78l-121.98,10.88
		L400.3-99.72z"/>
	<path class="st7" d="M-110.67-75.71c-96.11,11.17-117.27,95.23-120.21,128.44s-85.53-115.51-85.53-115.51l92.88-20.28l121.09-24.4
		L-110.67-75.71z"/>
	<path class="st7" d="M-118.22,409.65c4.11,61.14,46.15,118.45,117.27,126.68c71.46,8.27-6.17,9.41-6.17,9.41l-125.8-9.7
		l-2.65-120.8L-118.22,409.65z"/>
</g>
</svg>
